<?xml version="1.0" encoding="utf-8"?>
<!-- Generator: Adobe Illustrator 16.0.0, SVG Export Plug-In . SVG Version: 6.00 Build 0)  -->
<!DOCTYPE svg PUBLIC "-//W3C//DTD SVG 1.1//EN" "http://www.w3.org/Graphics/SVG/1.1/DTD/svg11.dtd">
<svg version="1.1" id="Layer_1" xmlns="http://www.w3.org/2000/svg" xmlns:xlink="http://www.w3.org/1999/xlink" x="0px" y="0px"
	 width="519.671px" height="300.116px" viewBox="0 0 519.671 300.116" enable-background="new 0 0 519.671 300.116"
	 xml:space="preserve">
<polygon fill="rgb(255, 158, 108)" points="176.993,299.346 176.981,299.367 178.113,299.369 178.125,299.349 212.745,239.361 211.863,236.687 
	"/>
<polygon fill="rgb(255, 158, 108)" points="138.813,235.726 174.228,297.309 175.471,295.202 139.869,235.728 "/>
<polygon fill="rgb(255, 158, 108)" points="153.155,242.944 151.814,242.988 178.654,289.712 179.896,287.603 "/>
<polygon fill="rgb(255, 158, 108)" points="164.533,249.886 182.785,281.601 184.028,279.491 166.243,249.903 "/>
<polygon fill="rgb(255, 158, 108)" points="188.414,272.563 179.554,257.816 177.477,257.797 187.171,274.672 "/>
<polygon fill="rgb(255, 158, 108)" points="77.462,290.44 41.645,229.09 40.416,231.207 76.406,290.444 "/>
<polygon fill="rgb(255, 158, 108)" points="64.415,283.262 37.269,236.717 36.041,238.833 63.073,283.316 "/>
<polygon fill="rgb(255, 158, 108)" points="31.961,246.971 49.94,276.443 51.65,276.449 33.19,244.854 "/>
<polygon fill="rgb(255, 158, 108)" points="27.622,253.928 36.576,268.616 38.655,268.623 28.851,251.811 "/>
<polygon fill="rgb(255, 158, 108)" points="123.171,228.162 83.342,294.641 84.575,296.754 124.227,228.165 "/>
<polygon fill="rgb(255, 158, 108)" points="107.929,242.243 107.822,239.984 78.953,287.021 80.186,289.137 "/>
<polygon fill="rgb(255, 158, 108)" points="97.198,243.12 74.86,278.892 76.094,281.006 98.908,243.111 "/>
<polygon fill="rgb(255, 158, 108)" points="85.66,250.434 84.146,250.447 70.509,271.941 71.743,274.056 "/>
<polygon fill="rgb(255, 158, 108)" points="39.326,226.382 38.271,226.379 2.871,285.53 4.103,287.646 "/>
<polygon fill="rgb(255, 158, 108)" points="29.138,226.357 3.303,270.874 4.535,272.987 30.665,226.615 "/>
<polygon fill="rgb(255, 158, 108)" points="73.67,257.859 71.592,257.871 66.234,264.815 67.467,266.93 "/>
<polygon fill="rgb(255, 158, 108)" points="130.164,228.742 90.512,297.332 91.567,297.335 131.396,230.856 "/>
<polygon fill="rgb(255, 158, 108)" points="106.81,283.254 106.917,285.514 135.786,238.477 134.553,236.361 "/>
<polygon fill="rgb(255, 158, 108)" points="115.831,282.385 117.542,282.376 139.877,246.607 138.645,244.492 "/>
<polygon fill="rgb(255, 158, 108)" points="129.08,275.062 130.593,275.05 144.229,253.556 142.997,251.441 "/>
<polygon fill="rgb(255, 158, 108)" points="141.068,267.637 143.146,267.626 148.504,260.682 147.271,258.568 "/>
<polygon fill="rgb(255, 158, 108)" points="196.325,191.353 202.205,182.452 199.6,182.51 195.713,190.239 "/>
<polygon fill="rgb(255, 158, 108)" points="214.96,174.331 212.412,174.579 200.237,197.314 200.908,198.325 "/>
<polygon fill="rgb(255, 158, 108)" points="225.677,166.715 204.677,204.474 205.432,205.736 227.97,166.465 "/>
<polygon fill="rgb(255, 158, 108)" points="240.468,159.618 237.666,159.866 208.697,212.39 209.617,213.905 "/>
<polygon fill="rgb(255, 158, 108)" points="63.08,259.804 64.75,256.935 62.671,256.946 61.847,257.689 "/>
<polygon fill="rgb(255, 158, 108)" points="185.33,299.338 185.707,299.367 186.076,299.394 186.502,299.426 186.518,299.395 186.534,299.369 
	212.469,254.432 211.945,251.402 "/>
<polygon fill="rgb(255, 158, 108)" points="194.026,299.388 194.012,299.413 194.004,299.423 195.309,299.44 195.322,299.415 195.337,299.39 
	212.586,269.505 212.105,266.674 "/>
<polygon fill="rgb(255, 158, 108)" points="202.56,299.378 203.951,299.398 212.602,284.411 212.242,281.644 "/>
<polygon fill="rgb(255, 158, 108)" points="214.252,232.259 254.132,298.662 255.283,298.528 215.678,229.707 "/>
<polygon fill="rgb(255, 158, 108)" points="214.501,247.025 245.188,298.924 246.47,298.856 215.358,244.756 "/>
<polygon fill="rgb(255, 158, 108)" points="215.317,262.221 237.161,299.491 238.531,299.416 215.747,259.949 "/>
<polygon fill="rgb(255, 158, 108)" points="215.135,278.406 228.357,299.47 229.639,299.401 215.994,276.137 "/>
<polygon fill="rgb(255, 158, 108)" points="215.385,292.747 219.695,299.448 221.066,299.374 216.241,290.904 "/>
<polygon fill="rgb(255, 158, 108)" points="210.684,298.984 211.48,299.429 213.128,299.433 211.542,296.714 "/>
<polygon fill="rgb(255, 158, 108)" points="129.187,215.998 90.569,150.021 87.872,150.014 129.18,218.875 "/>
<polygon fill="rgb(255, 158, 108)" points="124.765,223.98 85.161,155.161 83.736,157.712 123.616,224.115 "/>
<polygon fill="rgb(255, 158, 108)" points="115.952,224.31 84.84,170.209 83.982,172.479 114.668,224.377 "/>
<polygon fill="rgb(255, 158, 108)" points="108.013,224.868 85.23,185.402 84.799,187.674 106.642,224.943 "/>
<polygon fill="rgb(255, 158, 108)" points="122.942,150.098 129.318,161.487 129.325,158.781 125.354,150.104 "/>
<polygon fill="rgb(255, 158, 108)" points="113.854,150.076 129.288,173.936 129.292,171.951 116.41,150.082 "/>
<polygon fill="rgb(255, 158, 108)" points="105.761,150.057 129.25,189.897 129.256,187.216 108.459,150.062 "/>
<polygon fill="rgb(255, 158, 108)" points="96.816,150.035 129.214,204.66 129.222,201.683 99.088,150.04 "/>
<polygon fill="rgb(255, 158, 108)" points="99.123,224.854 85.476,201.589 84.617,203.858 97.839,224.922 "/>
<polygon fill="rgb(255, 158, 108)" points="89.178,224.901 90.549,224.826 85.723,216.356 84.866,218.2 "/>
<polygon fill="rgb(255, 158, 108)" points="81.443,225.149 82.726,225.082 81.024,222.167 80.167,224.437 "/>
<polygon fill="rgb(255, 158, 108)" points="214.064,227.731 134.662,228.354 135.22,229.338 212.18,229.826 "/>
<polygon fill="rgb(255, 158, 108)" points="209.679,235.12 147.628,235.867 148.133,236.93 208.218,237.08 "/>
<polygon fill="rgb(255, 158, 108)" points="205.196,242.854 160.446,243.365 161.077,244.504 203.832,244.677 "/>
<polygon fill="rgb(255, 158, 108)" points="200.711,250.45 173.535,250.914 174.208,252.134 199.834,252.104 "/>
<polygon fill="rgb(255, 158, 108)" points="5.94,198.365 27.677,198.05 26.916,195.949 7.391,196.681 "/>
<polygon fill="rgb(255, 158, 108)" points="117.075,228.3 44.014,228.398 45.919,230.472 116.526,229.289 "/>
<polygon fill="rgb(255, 158, 108)" points="104.184,235.943 48.474,235.741 49.954,237.687 103.69,237.009 "/>
<polygon fill="rgb(255, 158, 108)" points="91.443,243.569 53.036,243.431 54.417,245.239 90.825,244.716 "/>
<polygon fill="rgb(255, 158, 108)" points="78.43,251.25 57.594,250.981 58.49,252.625 77.77,252.478 "/>
<polygon fill="rgb(255, 158, 108)" points="101.588,295.536 100.802,296.824 171.108,297.125 169.216,295.038 "/>
<polygon fill="rgb(255, 158, 108)" points="112.672,289.259 166.695,289.753 165.227,287.799 113.419,287.951 "/>
<polygon fill="rgb(255, 158, 108)" points="126.418,280.572 125.792,281.715 162.182,282.035 160.812,280.219 "/>
<polygon fill="rgb(255, 158, 108)" points="138.585,274.114 157.669,274.457 156.786,272.807 139.253,272.893 "/>
<polygon fill="rgb(255, 158, 108)" points="149.875,265.352 149.093,266.738 153.283,266.878 152.398,265.229 "/>
<polygon fill="rgb(255, 158, 108)" points="3.104,295.62 1.232,297.725 81.103,296.784 80.303,295.503 "/>
<polygon fill="rgb(255, 158, 108)" points="5.575,290.312 69.161,289.332 68.401,288.031 7.024,288.344 "/>
<polygon fill="rgb(255, 158, 108)" points="10.015,282.552 55.437,281.909 54.8,280.773 11.368,280.722 "/>
<polygon fill="rgb(255, 158, 108)" points="14.456,274.931 42.56,274.431 41.879,273.214 15.324,273.272 "/>
<polygon fill="rgb(255, 158, 108)" points="3.771,155.41 82.423,155.298 84.296,153.192 2.972,154.13 "/>
<polygon fill="rgb(255, 158, 108)" points="79.953,160.605 16.367,161.586 17.126,162.887 78.503,162.573 "/>
<polygon fill="rgb(255, 158, 108)" points="75.513,168.365 30.09,169.009 30.728,170.144 74.16,170.195 "/>
<polygon fill="rgb(255, 158, 108)" points="71.073,175.986 42.969,176.486 43.648,177.702 70.205,177.644 "/>
<polygon fill="rgb(255, 158, 108)" points="67.233,183.619 56.17,183.945 56.849,185.161 66.366,185.276 "/>
<polygon fill="rgb(255, 158, 108)" points="209.423,220.146 132.225,220.263 130.351,222.368 210.222,221.427 "/>
<polygon fill="rgb(255, 158, 108)" points="134.695,214.953 198.281,213.975 197.521,212.674 136.144,212.986 "/>
<polygon fill="rgb(255, 158, 108)" points="139.135,207.193 184.557,206.552 183.919,205.416 140.488,205.363 "/>
<polygon fill="rgb(255, 158, 108)" points="143.576,199.572 171.679,199.072 170.999,197.857 144.443,197.915 "/>
<polygon fill="rgb(255, 158, 108)" points="147.414,191.94 158.479,191.613 157.799,190.397 148.282,190.282 "/>
<polygon fill="rgb(255, 158, 108)" points="175.697,155.21 243.634,154.24 244.424,152.954 173.81,153.119 "/>
<polygon fill="rgb(255, 158, 108)" points="232.537,160.492 178.207,160.5 179.669,162.458 231.787,161.8 "/>
<polygon fill="rgb(255, 158, 108)" points="218.867,168.012 182.703,168.229 184.067,170.049 218.236,169.153 "/>
<polygon fill="rgb(255, 158, 108)" points="206.042,175.583 187.195,175.817 188.076,177.469 205.37,176.805 "/>
<polygon fill="rgb(255, 158, 108)" points="194.051,183.14 191.186,183.253 191.97,185.075 "/>
<polygon fill="rgb(255, 158, 108)" points="196.909,257.624 185.598,257.889 186.27,259.108 196.031,259.277 "/>
<polygon fill="rgb(255, 158, 108)" points="193.051,264.844 188.853,265.139 189.526,266.359 192.174,266.496 "/>
<polygon fill="rgb(255, 158, 108)" points="46.669,225.57 47.8,225.593 83.482,166.203 82.647,163.514 "/>
<polygon fill="rgb(255, 158, 108)" points="55.017,225.688 56.187,225.796 82.942,181.265 82.47,178.228 "/>
<polygon fill="rgb(255, 158, 108)" points="63.691,225.926 64.993,225.967 82.794,196.338 82.364,193.5 "/>
<polygon fill="rgb(255, 158, 108)" points="82.546,211.243 82.237,208.469 72.242,226.031 73.635,226.076 "/>
<polygon fill="rgb(255, 158, 108)" points="18.306,181.991 13.299,190.549 15.473,190.346 19.241,183.279 "/>
<polygon fill="rgb(255, 158, 108)" points="22.539,189.915 20.431,192.585 22.532,192.589 23.109,190.872 "/>
<polygon fill="rgb(255, 158, 108)" points="46.163,220.072 10.258,160.815 9.126,160.844 45.335,222.765 "/>
<polygon fill="rgb(255, 158, 108)" points="50.443,213.014 22.826,167.309 21.657,167.422 49.286,214.78 "/>
<polygon fill="rgb(255, 158, 108)" points="35.174,175.867 53.584,206.797 54.902,205.123 36.476,175.822 "/>
<polygon fill="rgb(255, 158, 108)" points="58.913,198.297 48.914,182.103 47.522,182.151 57.843,200.159 "/>
<polygon fill="rgb(255, 158, 108)" points="206.723,215.792 169.85,152.517 169.028,155.278 205.58,215.824 "/>
<polygon fill="rgb(255, 158, 108)" points="194.035,209.112 165.896,160.718 164.736,162.533 192.854,209.232 "/>
<polygon fill="rgb(255, 158, 108)" points="160.272,170.642 179.024,200.577 180.339,200.525 161.594,168.921 "/>
<polygon fill="rgb(255, 158, 108)" points="156.251,177.656 166.43,194.204 167.835,194.146 157.323,175.743 "/>
<polygon fill="rgb(255, 158, 108)" points="62.924,191.56 61.888,190.09 60.497,190.14 61.855,193.421 "/>
<polygon fill="rgb(255, 158, 108)" points="166.434,150.624 165.303,150.621 130.669,210.629 131.553,213.305 "/>
<polygon fill="rgb(255, 158, 108)" points="158.085,150.652 156.914,150.565 130.946,195.56 131.471,198.589 "/>
<polygon fill="rgb(255, 158, 108)" points="149.41,150.567 148.106,150.55 130.83,180.485 131.309,183.315 "/>
<polygon fill="rgb(255, 158, 108)" points="140.855,150.613 139.463,150.592 130.814,165.578 131.173,168.348 "/>
<polygon fill="rgb(255, 158, 108)" points="151.176,185.569 154.535,184.284 153.291,183.034 "/>
<polygon fill="rgb(255, 158, 108)" points="0.042,203.384 0.038,205.552 1.396,205.582 1.324,205.536 31.862,205.323 30.914,203.358 "/>
<polygon fill="rgb(255, 158, 108)" points="0.022,211.412 0.018,213.252 37.193,212.944 36.387,211.116 "/>
<polygon fill="rgb(255, 158, 108)" points="0.005,218.766 0,220.731 41.378,220.39 40.428,218.424 "/>
<polygon fill="rgb(255, 158, 108)" points="236.035,224.417 259.429,264.282 259.522,264.444 259.528,261.763 259.435,261.592 238.732,224.423 
	"/>
<polygon fill="rgb(255, 158, 108)" points="259.503,233.116 255.629,224.465 253.214,224.458 259.496,235.861 259.591,236.032 259.599,233.327 
	"/>
<polygon fill="rgb(255, 158, 108)" points="259.487,279.206 259.494,276.228 259.399,276.066 229.362,224.4 227.09,224.396 259.392,279.047 "/>
<polygon fill="rgb(255, 158, 108)" points="250.322,152.313 213.225,221.062 213.795,222.03 253.742,152.263 "/>
<polygon fill="rgb(255, 158, 108)" points="259.907,155.275 259.91,154.331 258.071,153.714 219.954,221.889 221.735,221.893 "/>
<polygon fill="rgb(255, 158, 108)" points="232.96,214.112 234.669,214.052 259.872,169.806 259.881,166.396 "/>
<polygon fill="rgb(255, 158, 108)" points="259.842,182.373 245.596,206.671 247.736,206.699 259.833,185.959 "/>
<polygon fill="rgb(255, 158, 108)" points="220.842,224.38 218.145,224.374 259.359,293.263 259.365,290.383 "/>
<polygon fill="rgb(255, 158, 108)" points="246.683,224.442 244.127,224.437 259.466,248.336 259.471,246.336 "/>
<polygon fill="rgb(255, 158, 108)" points="241.375,214.009 259.767,213.879 259.771,212.038 242.19,212.186 "/>
<polygon fill="rgb(255, 158, 108)" points="230.089,219.646 229.129,221.606 259.748,221.401 259.753,219.391 "/>
<polygon fill="rgb(255, 158, 108)" points="436.753,299.972 436.742,299.992 437.873,299.995 437.886,299.975 472.506,239.986 471.623,237.312 
	"/>
<polygon fill="rgb(255, 158, 108)" points="398.573,236.352 433.988,297.935 435.23,295.827 399.63,236.354 "/>
<polygon fill="rgb(255, 158, 108)" points="412.915,243.57 411.574,243.614 438.414,290.338 439.657,288.229 "/>
<polygon fill="rgb(255, 158, 108)" points="424.293,250.512 442.545,282.227 443.788,280.117 426.003,250.53 "/>
<polygon fill="rgb(255, 158, 108)" points="448.174,273.189 439.315,258.442 437.237,258.422 446.932,275.298 "/>
<polygon fill="rgb(255, 158, 108)" points="337.223,291.066 301.406,229.716 300.177,231.833 336.167,291.07 "/>
<polygon fill="rgb(255, 158, 108)" points="322.834,283.941 324.175,283.888 297.028,237.343 295.801,239.46 "/>
<polygon fill="rgb(255, 158, 108)" points="291.722,247.597 309.701,277.069 311.411,277.075 292.951,245.48 "/>
<polygon fill="rgb(255, 158, 108)" points="287.382,254.554 296.337,269.242 298.416,269.249 288.611,252.437 "/>
<polygon fill="rgb(255, 158, 108)" points="382.932,228.788 343.103,295.267 344.336,297.38 383.987,228.791 "/>
<polygon fill="rgb(255, 158, 108)" points="367.689,242.869 367.582,240.61 338.714,287.647 339.946,289.763 "/>
<polygon fill="rgb(255, 158, 108)" points="356.958,243.746 334.622,279.517 335.854,281.63 358.668,243.737 "/>
<polygon fill="rgb(255, 158, 108)" points="345.42,251.06 343.906,251.073 330.271,272.567 331.501,274.682 "/>
<polygon fill="rgb(255, 158, 108)" points="299.087,227.008 298.031,227.005 262.631,286.156 263.863,288.271 "/>
<polygon fill="rgb(255, 158, 108)" points="288.898,226.983 263.063,271.5 264.296,273.613 290.426,227.241 "/>
<polygon fill="rgb(255, 158, 108)" points="280.491,227.218 262.592,256.213 263.822,258.328 282.202,227.208 "/>
<polygon fill="rgb(255, 158, 108)" points="273.135,227.196 271.621,227.21 262.371,241.948 263.604,244.062 "/>
<polygon fill="rgb(255, 158, 108)" points="260.616,229.926 260.614,230.661 261.595,232.34 264.685,226.908 263.172,226.921 "/>
<polygon fill="rgb(255, 158, 108)" points="333.431,258.485 331.353,258.497 325.995,265.441 327.228,267.556 "/>
<polygon fill="rgb(255, 158, 108)" points="389.924,229.368 350.273,297.958 351.328,297.96 391.156,231.482 "/>
<polygon fill="rgb(255, 158, 108)" points="366.57,283.88 366.677,286.139 395.547,239.103 394.313,236.987 "/>
<polygon fill="rgb(255, 158, 108)" points="375.592,283.011 377.302,283.001 399.638,247.233 398.405,245.118 "/>
<polygon fill="rgb(255, 158, 108)" points="388.839,275.688 390.354,275.676 403.99,254.182 402.757,252.067 "/>
<polygon fill="rgb(255, 158, 108)" points="400.829,268.263 402.907,268.252 408.266,261.308 407.031,259.194 "/>
<polygon fill="rgb(255, 158, 108)" points="456.084,191.979 461.965,183.078 459.361,183.136 455.475,190.864 "/>
<polygon fill="rgb(255, 158, 108)" points="474.721,174.957 472.173,175.205 459.998,197.94 460.668,198.951 "/>
<polygon fill="rgb(255, 158, 108)" points="485.438,167.341 464.438,205.101 465.192,206.362 487.73,167.091 "/>
<polygon fill="rgb(255, 158, 108)" points="500.229,160.244 497.427,160.491 468.457,213.016 469.378,214.531 "/>
<polygon fill="rgb(255, 158, 108)" points="322.84,260.43 324.511,257.561 322.432,257.571 321.608,258.315 "/>
<polygon fill="rgb(255, 158, 108)" points="445.091,299.964 445.467,299.992 445.837,300.021 446.263,300.051 446.278,300.021 446.296,299.995 
	472.229,255.057 471.704,252.028 "/>
<polygon fill="rgb(255, 158, 108)" points="453.786,300.012 453.772,300.04 453.766,300.049 455.069,300.066 455.083,300.042 455.099,300.015 
	472.348,270.131 471.866,267.301 "/>
<polygon fill="rgb(255, 158, 108)" points="462.319,300.004 463.712,300.023 472.362,285.038 472.003,282.27 "/>
<polygon fill="rgb(255, 158, 108)" points="474.013,232.886 513.893,299.288 515.044,299.153 475.438,230.333 "/>
<polygon fill="rgb(255, 158, 108)" points="474.262,247.651 504.947,299.55 506.231,299.482 475.119,245.382 "/>
<polygon fill="rgb(255, 158, 108)" points="475.077,262.847 496.921,300.116 498.292,300.041 475.508,260.575 "/>
<polygon fill="rgb(255, 158, 108)" points="474.896,279.033 488.118,300.095 489.4,300.027 475.754,276.763 "/>
<polygon fill="rgb(255, 158, 108)" points="475.146,293.373 479.456,300.074 480.827,299.999 476.002,291.529 "/>
<polygon fill="rgb(255, 158, 108)" points="470.444,299.609 471.241,300.055 472.889,300.059 471.303,297.34 "/>
<polygon fill="rgb(255, 158, 108)" points="388.947,216.624 350.328,150.646 347.633,150.641 388.94,219.501 "/>
<polygon fill="rgb(255, 158, 108)" points="384.525,224.606 344.922,155.786 343.496,158.338 383.376,224.742 "/>
<polygon fill="rgb(255, 158, 108)" points="375.712,224.936 344.602,170.835 343.743,173.104 374.429,225.003 "/>
<polygon fill="rgb(255, 158, 108)" points="367.773,225.494 344.99,186.028 344.559,188.3 366.402,225.569 "/>
<polygon fill="rgb(255, 158, 108)" points="382.701,150.724 389.078,162.113 389.085,159.407 385.115,150.729 "/>
<polygon fill="rgb(255, 158, 108)" points="373.614,150.702 389.05,174.562 389.053,172.577 376.171,150.708 "/>
<polygon fill="rgb(255, 158, 108)" points="393.305,150.749 390.891,150.744 393.96,155.226 393.967,152.519 "/>
<polygon fill="rgb(255, 158, 108)" points="365.521,150.683 389.01,190.523 389.017,187.842 368.22,150.688 "/>
<polygon fill="rgb(255, 158, 108)" points="356.576,150.661 388.974,205.286 388.981,202.309 358.849,150.666 "/>
<polygon fill="rgb(255, 158, 108)" points="358.883,225.479 345.236,202.215 344.378,204.484 357.6,225.548 "/>
<polygon fill="rgb(255, 158, 108)" points="348.938,225.527 350.31,225.452 345.483,216.982 344.627,218.826 "/>
<polygon fill="rgb(255, 158, 108)" points="341.203,225.775 342.486,225.708 340.784,222.793 339.928,225.062 "/>
<polygon fill="rgb(255, 158, 108)" points="473.824,228.357 394.423,228.98 394.98,229.964 471.94,230.452 "/>
<polygon fill="rgb(255, 158, 108)" points="469.439,235.746 407.389,236.493 407.894,237.555 467.979,237.706 "/>
<polygon fill="rgb(255, 158, 108)" points="464.955,243.48 420.205,243.992 420.836,245.13 463.593,245.303 "/>
<polygon fill="rgb(255, 158, 108)" points="460.472,251.076 433.296,251.54 433.969,252.76 459.595,252.729 "/>
<polygon fill="rgb(255, 158, 108)" points="265.7,198.991 287.438,198.676 286.677,196.575 267.151,197.307 "/>
<polygon fill="rgb(255, 158, 108)" points="376.835,228.925 303.774,229.024 305.681,231.098 376.287,229.915 "/>
<polygon fill="rgb(255, 158, 108)" points="363.944,236.569 308.234,236.367 309.715,238.312 363.45,237.635 "/>
<polygon fill="rgb(255, 158, 108)" points="351.203,244.195 312.797,244.057 314.177,245.865 350.584,245.342 "/>
<polygon fill="rgb(255, 158, 108)" points="338.19,251.876 317.354,251.607 318.25,253.25 337.53,253.104 "/>
<polygon fill="rgb(255, 158, 108)" points="361.349,296.162 360.562,297.45 430.869,297.751 428.976,295.663 "/>
<polygon fill="rgb(255, 158, 108)" points="372.433,289.885 426.455,290.379 424.988,288.425 373.18,288.577 "/>
<polygon fill="rgb(255, 158, 108)" points="386.179,281.198 385.552,282.341 421.943,282.661 420.573,280.845 "/>
<polygon fill="rgb(255, 158, 108)" points="398.346,274.74 417.43,275.082 416.546,273.434 399.013,273.519 "/>
<polygon fill="rgb(255, 158, 108)" points="409.635,265.978 408.854,267.364 413.044,267.505 412.159,265.854 "/>
<polygon fill="rgb(255, 158, 108)" points="262.864,296.246 260.992,298.351 340.863,297.41 340.063,296.129 "/>
<polygon fill="rgb(255, 158, 108)" points="265.335,290.938 328.921,289.957 328.162,288.656 266.785,288.97 "/>
<polygon fill="rgb(255, 158, 108)" points="269.775,283.178 315.197,282.535 314.56,281.399 271.129,281.348 "/>
<polygon fill="rgb(255, 158, 108)" points="274.216,275.557 302.319,275.057 301.64,273.841 275.085,273.898 "/>
<polygon fill="rgb(255, 158, 108)" points="263.531,156.035 342.184,155.924 344.056,153.818 262.732,154.756 "/>
<polygon fill="rgb(255, 158, 108)" points="339.713,161.231 276.127,162.211 276.887,163.512 338.264,163.2 "/>
<polygon fill="rgb(255, 158, 108)" points="335.273,168.991 289.851,169.635 290.488,170.771 333.92,170.821 "/>
<polygon fill="rgb(255, 158, 108)" points="330.833,176.612 302.729,177.112 303.409,178.328 329.965,178.27 "/>
<polygon fill="rgb(255, 158, 108)" points="326.993,184.245 315.93,184.571 316.609,185.787 326.125,185.902 "/>
<polygon fill="rgb(255, 158, 108)" points="469.183,220.771 391.985,220.889 390.112,222.993 469.982,222.053 "/>
<polygon fill="rgb(255, 158, 108)" points="394.455,215.579 458.041,214.601 457.282,213.298 395.904,213.611 "/>
<polygon fill="rgb(255, 158, 108)" points="398.895,207.819 444.317,207.178 443.68,206.042 400.249,205.989 "/>
<polygon fill="rgb(255, 158, 108)" points="403.336,200.198 431.439,199.698 430.759,198.483 404.203,198.542 "/>
<polygon fill="rgb(255, 158, 108)" points="407.175,192.566 418.239,192.239 417.559,191.023 408.043,190.908 "/>
<polygon fill="rgb(255, 158, 108)" points="435.458,155.836 503.396,154.866 504.186,153.58 433.569,153.745 "/>
<polygon fill="rgb(255, 158, 108)" points="492.297,161.118 437.966,161.126 439.43,163.084 491.547,162.426 "/>
<polygon fill="rgb(255, 158, 108)" points="478.627,168.638 442.462,168.854 443.828,170.675 477.998,169.779 "/>
<polygon fill="rgb(255, 158, 108)" points="465.802,176.209 446.956,176.443 447.837,178.095 465.131,177.431 "/>
<polygon fill="rgb(255, 158, 108)" points="453.812,183.766 450.947,183.879 451.73,185.701 "/>
<polygon fill="rgb(255, 158, 108)" points="278.787,267.69 289.434,267.587 288.659,266.195 279.68,266.046 "/>
<polygon fill="rgb(255, 158, 108)" points="456.669,258.25 445.358,258.515 446.029,259.733 455.792,259.903 "/>
<polygon fill="rgb(255, 158, 108)" points="452.812,265.469 448.613,265.765 449.286,266.985 451.934,267.122 "/>
<polygon fill="rgb(255, 158, 108)" points="306.43,226.196 307.561,226.219 343.243,166.829 342.408,164.14 "/>
<polygon fill="rgb(255, 158, 108)" points="314.777,226.314 315.946,226.422 342.702,181.891 342.229,178.854 "/>
<polygon fill="rgb(255, 158, 108)" points="323.45,226.552 324.754,226.593 342.555,196.964 342.123,194.126 "/>
<polygon fill="rgb(255, 158, 108)" points="342.307,211.869 341.998,209.095 332.003,226.657 333.396,226.702 "/>
<polygon fill="rgb(255, 158, 108)" points="278.066,182.617 273.059,191.175 275.233,190.972 279.002,183.905 "/>
<polygon fill="rgb(255, 158, 108)" points="282.299,190.541 280.192,193.211 282.293,193.215 282.87,191.498 "/>
<polygon fill="rgb(255, 158, 108)" points="305.922,220.698 270.02,161.441 268.887,161.47 305.096,223.391 "/>
<polygon fill="rgb(255, 158, 108)" points="310.203,213.64 282.585,167.935 281.417,168.048 309.048,215.407 "/>
<polygon fill="rgb(255, 158, 108)" points="294.935,176.493 313.345,207.423 314.662,205.749 296.236,176.448 "/>
<polygon fill="rgb(255, 158, 108)" points="318.673,198.923 308.674,182.728 307.283,182.777 317.604,200.784 "/>
<polygon fill="rgb(255, 158, 108)" points="466.483,216.417 429.61,153.142 428.789,155.905 465.341,216.451 "/>
<polygon fill="rgb(255, 158, 108)" points="453.796,209.738 425.657,161.344 424.497,163.16 452.614,209.858 "/>
<polygon fill="rgb(255, 158, 108)" points="420.032,171.268 438.784,201.203 440.1,201.15 421.354,169.547 "/>
<polygon fill="rgb(255, 158, 108)" points="416.012,178.282 426.19,194.83 427.596,194.771 417.084,176.369 "/>
<polygon fill="rgb(255, 158, 108)" points="322.684,192.186 321.649,190.715 320.258,190.766 321.615,194.047 "/>
<polygon fill="rgb(255, 158, 108)" points="426.193,151.25 425.062,151.248 390.43,211.254 391.313,213.93 "/>
<polygon fill="rgb(255, 158, 108)" points="417.846,151.278 416.675,151.191 390.707,196.186 391.232,199.215 "/>
<polygon fill="rgb(255, 158, 108)" points="409.17,151.193 407.867,151.176 390.59,181.112 391.07,183.942 "/>
<polygon fill="rgb(255, 158, 108)" points="400.616,151.238 399.225,151.219 390.574,166.204 390.934,168.974 "/>
<polygon fill="rgb(255, 158, 108)" points="410.937,186.195 414.295,184.909 413.051,183.66 "/>
<polygon fill="rgb(255, 158, 108)" points="260.119,181.935 259.854,182.373 259.847,185.959 270.429,168.968 270.08,166.839 "/>
<polygon fill="rgb(255, 158, 108)" points="262.104,162.772 259.894,166.396 259.885,169.807 264.331,162.84 263.609,160.336 "/>
<polygon fill="rgb(255, 158, 108)" points="290.673,203.983 259.803,204.009 259.801,204.308 259.779,203.998 256.106,203.938 255.224,206.23 
	259.486,206.218 259.774,206.218 259.778,205.599 259.802,204.31 259.797,206.176 261.156,206.209 261.084,206.163 291.624,205.949 
	"/>
<polygon fill="rgb(255, 158, 108)" points="259.823,195.37 259.816,198.188 274.673,176.479 273.993,175.199 "/>
<polygon fill="rgb(255, 158, 108)" points="296.147,211.742 259.783,212.038 259.778,213.878 296.955,213.569 "/>
<polygon fill="rgb(255, 158, 108)" points="300.188,219.05 259.765,219.391 259.76,221.357 301.139,221.016 "/>
<polygon fill="rgb(255, 158, 108)" points="519.188,264.908 519.283,265.07 519.289,262.389 519.195,262.218 498.493,225.049 495.795,225.043 
	"/>
<polygon fill="rgb(255, 158, 108)" points="519.257,236.487 519.352,236.658 519.357,233.953 519.264,233.741 515.39,225.09 512.975,225.084 
	"/>
<polygon fill="rgb(255, 158, 108)" points="519.152,279.673 519.247,279.832 519.256,276.854 519.16,276.691 489.122,225.026 486.85,225.021 
	"/>
<polygon fill="rgb(255, 158, 108)" points="510.082,152.939 472.984,221.688 473.557,222.656 513.503,152.889 "/>
<polygon fill="rgb(255, 158, 108)" points="479.714,222.514 481.496,222.519 519.668,155.901 519.671,154.957 517.831,154.339 "/>
<polygon fill="rgb(255, 158, 108)" points="492.721,214.738 494.43,214.679 519.633,170.432 519.642,167.021 "/>
<polygon fill="rgb(255, 158, 108)" points="505.355,207.298 507.497,207.325 519.595,186.584 519.603,182.999 "/>
<polygon fill="rgb(255, 158, 108)" points="519.119,293.889 519.126,291.008 480.604,225.006 477.904,225 "/>
<polygon fill="rgb(255, 158, 108)" points="519.228,248.961 519.231,246.961 506.443,225.069 503.888,225.062 "/>
<polygon fill="rgb(255, 158, 108)" points="514.984,206.856 519.247,206.844 519.534,206.844 519.539,206.225 519.562,204.935 519.539,204.623 
	515.866,204.562 "/>
<polygon fill="rgb(255, 158, 108)" points="501.951,212.811 501.136,214.635 519.526,214.504 519.531,212.664 "/>
<polygon fill="rgb(255, 158, 108)" points="489.85,220.271 488.891,222.232 519.508,222.026 519.515,220.017 "/>
<polygon fill="rgb(255, 158, 108)" points="211.863,86.674 176.994,149.332 176.981,149.354 178.113,149.355 178.125,149.335 212.746,89.348 
	"/>
<polygon fill="rgb(255, 158, 108)" points="138.813,85.712 174.228,147.295 175.471,145.188 139.869,85.714 "/>
<polygon fill="rgb(255, 158, 108)" points="153.155,92.931 151.814,92.975 178.654,139.698 179.896,137.59 "/>
<polygon fill="rgb(255, 158, 108)" points="164.533,99.872 182.785,131.587 184.028,129.479 166.243,99.889 "/>
<polygon fill="rgb(255, 158, 108)" points="188.414,122.55 179.554,107.804 177.477,107.784 187.171,124.659 "/>
<polygon fill="rgb(255, 158, 108)" points="77.462,140.427 41.645,79.076 40.416,81.193 76.406,140.431 "/>
<polygon fill="rgb(255, 158, 108)" points="64.415,133.249 37.269,86.704 36.041,88.82 63.073,133.303 "/>
<polygon fill="rgb(255, 158, 108)" points="31.961,96.958 49.94,126.429 51.65,126.436 33.19,94.841 "/>
<polygon fill="rgb(255, 158, 108)" points="27.622,103.914 36.576,118.604 38.655,118.609 28.851,101.797 "/>
<polygon fill="rgb(255, 158, 108)" points="123.171,78.149 83.342,144.627 84.575,146.741 124.227,78.152 "/>
<polygon fill="rgb(255, 158, 108)" points="107.929,92.229 107.822,89.971 78.953,137.008 80.186,139.123 "/>
<polygon fill="rgb(255, 158, 108)" points="97.198,93.107 74.86,128.877 76.094,130.991 98.908,93.098 "/>
<polygon fill="rgb(255, 158, 108)" points="85.66,100.421 84.146,100.434 70.509,121.928 71.743,124.043 "/>
<polygon fill="rgb(255, 158, 108)" points="39.326,76.368 38.271,76.365 2.871,135.518 4.103,137.631 "/>
<polygon fill="rgb(255, 158, 108)" points="29.138,76.344 3.303,120.86 4.535,122.974 30.665,76.602 "/>
<polygon fill="rgb(255, 158, 108)" points="73.67,107.846 71.592,107.857 66.234,114.802 67.467,116.916 "/>
<polygon fill="rgb(255, 158, 108)" points="130.164,78.729 90.512,147.319 91.567,147.322 131.396,80.843 "/>
<polygon fill="rgb(255, 158, 108)" points="106.81,133.241 106.917,135.5 135.786,88.462 134.553,86.348 "/>
<polygon fill="rgb(255, 158, 108)" points="115.831,132.372 117.542,132.362 139.877,96.593 138.645,94.479 "/>
<polygon fill="rgb(255, 158, 108)" points="129.08,125.049 130.593,125.037 144.229,103.542 142.997,101.428 "/>
<polygon fill="rgb(255, 158, 108)" points="141.068,117.624 143.146,117.613 148.504,110.668 147.271,108.554 "/>
<polygon fill="rgb(255, 158, 108)" points="196.325,41.34 202.205,32.438 199.6,32.497 195.713,40.225 "/>
<polygon fill="rgb(255, 158, 108)" points="214.96,24.317 212.412,24.566 200.237,47.301 200.908,48.312 "/>
<polygon fill="rgb(255, 158, 108)" points="225.677,16.702 204.677,54.46 205.432,55.723 227.97,16.452 "/>
<polygon fill="rgb(255, 158, 108)" points="240.468,9.604 237.666,9.853 208.697,62.375 209.617,63.893 "/>
<polygon fill="rgb(255, 158, 108)" points="63.08,109.791 64.75,106.921 62.671,106.932 61.847,107.676 "/>
<polygon fill="rgb(255, 158, 108)" points="211.945,101.389 185.33,149.325 185.708,149.353 186.076,149.38 186.501,149.412 186.518,149.382 
	186.535,149.355 212.468,104.417 "/>
<polygon fill="rgb(255, 158, 108)" points="212.105,116.661 194.027,149.373 194.011,149.4 194.005,149.41 195.309,149.427 195.323,149.402 
	195.338,149.376 212.586,119.492 "/>
<polygon fill="rgb(255, 158, 108)" points="202.56,149.365 203.952,149.385 212.602,134.398 212.243,131.629 "/>
<polygon fill="rgb(255, 158, 108)" points="214.252,82.246 254.132,148.649 255.283,148.515 215.678,79.693 "/>
<polygon fill="rgb(255, 158, 108)" points="214.501,97.013 245.188,148.911 246.47,148.844 215.358,94.743 "/>
<polygon fill="rgb(255, 158, 108)" points="215.317,112.207 237.161,149.477 238.531,149.403 215.748,109.936 "/>
<polygon fill="rgb(255, 158, 108)" points="215.135,128.393 228.357,149.456 229.64,149.388 215.993,126.123 "/>
<polygon fill="rgb(255, 158, 108)" points="215.385,142.733 219.696,149.435 221.066,149.359 216.241,140.891 "/>
<polygon fill="rgb(255, 158, 108)" points="210.684,148.97 211.481,149.415 213.128,149.419 211.541,146.7 "/>
<polygon fill="rgb(255, 158, 108)" points="87.872,0 129.18,68.861 129.187,65.984 90.568,0.006 "/>
<polygon fill="rgb(255, 158, 108)" points="124.765,73.967 85.161,5.146 83.736,7.699 123.616,74.103 "/>
<polygon fill="rgb(255, 158, 108)" points="115.952,74.296 84.84,20.196 83.982,22.465 114.668,74.364 "/>
<polygon fill="rgb(255, 158, 108)" points="108.013,74.855 85.23,35.389 84.799,37.66 106.642,74.93 "/>
<polygon fill="rgb(255, 158, 108)" points="129.317,11.474 129.324,8.767 125.354,0.091 122.941,0.083 "/>
<polygon fill="rgb(255, 158, 108)" points="129.288,23.922 129.292,21.938 116.41,0.068 113.854,0.062 "/>
<polygon fill="rgb(255, 158, 108)" points="129.25,39.885 129.256,37.202 108.459,0.05 105.761,0.044 "/>
<polygon fill="rgb(255, 158, 108)" points="129.214,54.646 129.222,51.669 99.088,0.026 96.816,0.021 "/>
<polygon fill="rgb(255, 158, 108)" points="99.123,74.841 85.476,51.576 84.617,53.846 97.839,74.909 "/>
<polygon fill="rgb(255, 158, 108)" points="89.178,74.888 90.549,74.812 85.723,66.344 84.866,68.187 "/>
<polygon fill="rgb(255, 158, 108)" points="81.443,75.136 82.726,75.068 81.024,72.153 80.167,74.423 "/>
<polygon fill="rgb(255, 158, 108)" points="214.064,77.719 134.662,78.341 135.22,79.325 212.18,79.812 "/>
<polygon fill="rgb(255, 158, 108)" points="209.679,85.107 147.628,85.854 148.133,86.916 208.218,87.067 "/>
<polygon fill="rgb(255, 158, 108)" points="205.196,92.842 160.446,93.352 161.077,94.491 203.832,94.664 "/>
<polygon fill="rgb(255, 158, 108)" points="200.711,100.438 173.535,100.901 174.208,102.12 199.834,102.09 "/>
<polygon fill="rgb(255, 158, 108)" points="5.94,48.352 27.677,48.036 26.916,45.936 7.391,46.667 "/>
<polygon fill="rgb(255, 158, 108)" points="117.075,78.287 44.014,78.384 45.919,80.458 116.526,79.275 "/>
<polygon fill="rgb(255, 158, 108)" points="104.184,85.93 48.474,85.728 49.954,87.673 103.69,86.996 "/>
<polygon fill="rgb(255, 158, 108)" points="91.443,93.556 53.036,93.417 54.417,95.226 90.825,94.702 "/>
<polygon fill="rgb(255, 158, 108)" points="78.43,101.237 57.594,100.968 58.49,102.612 77.77,102.463 "/>
<polygon fill="rgb(255, 158, 108)" points="101.588,145.523 100.802,146.811 171.108,147.112 169.216,145.025 "/>
<polygon fill="rgb(255, 158, 108)" points="112.672,139.246 166.695,139.739 165.227,137.787 113.419,137.938 "/>
<polygon fill="rgb(255, 158, 108)" points="126.418,130.559 125.792,131.701 162.182,132.022 160.812,130.205 "/>
<polygon fill="rgb(255, 158, 108)" points="138.585,124.102 157.669,124.443 156.786,122.792 139.253,122.879 "/>
<polygon fill="rgb(255, 158, 108)" points="149.875,115.338 149.093,116.724 153.283,116.865 152.398,115.215 "/>
<polygon fill="rgb(255, 158, 108)" points="3.104,145.607 1.232,147.711 81.103,146.771 80.303,145.49 "/>
<polygon fill="rgb(255, 158, 108)" points="5.575,140.298 69.161,139.318 68.401,138.017 7.024,138.33 "/>
<polygon fill="rgb(255, 158, 108)" points="10.015,132.538 55.437,131.896 54.8,130.759 11.368,130.708 "/>
<polygon fill="rgb(255, 158, 108)" points="14.456,124.917 42.56,124.417 41.879,123.201 15.324,123.259 "/>
<polygon fill="rgb(255, 158, 108)" points="3.771,5.396 82.423,5.284 84.296,3.18 2.972,4.116 "/>
<polygon fill="rgb(255, 158, 108)" points="79.953,10.592 16.367,11.573 17.126,12.873 78.503,12.56 "/>
<polygon fill="rgb(255, 158, 108)" points="75.513,18.353 30.09,18.994 30.728,20.13 74.16,20.182 "/>
<polygon fill="rgb(255, 158, 108)" points="71.073,25.973 42.969,26.473 43.648,27.689 70.205,27.631 "/>
<polygon fill="rgb(255, 158, 108)" points="67.233,33.605 56.17,33.932 56.849,35.147 66.366,35.263 "/>
<polygon fill="rgb(255, 158, 108)" points="209.423,70.133 132.225,70.25 130.351,72.354 210.222,71.414 "/>
<polygon fill="rgb(255, 158, 108)" points="134.695,64.94 198.281,63.96 197.521,62.659 136.144,62.973 "/>
<polygon fill="rgb(255, 158, 108)" points="139.135,57.18 184.557,56.539 183.919,55.401 140.488,55.351 "/>
<polygon fill="rgb(255, 158, 108)" points="143.576,49.559 171.679,49.059 170.999,47.844 144.443,47.901 "/>
<polygon fill="rgb(255, 158, 108)" points="147.414,41.927 158.479,41.6 157.799,40.385 148.282,40.269 "/>
<polygon fill="rgb(255, 158, 108)" points="175.697,5.196 243.634,4.228 244.424,2.94 173.81,3.105 "/>
<polygon fill="rgb(255, 158, 108)" points="232.537,10.479 178.207,10.487 179.669,12.445 231.787,11.785 "/>
<polygon fill="rgb(255, 158, 108)" points="218.867,17.999 182.703,18.216 184.067,20.036 218.236,19.14 "/>
<polygon fill="rgb(255, 158, 108)" points="206.042,25.57 187.195,25.804 188.076,27.456 205.37,26.791 "/>
<polygon fill="rgb(255, 158, 108)" points="194.051,33.126 191.186,33.239 191.97,35.061 "/>
<polygon fill="rgb(255, 158, 108)" points="196.909,107.611 185.598,107.875 186.27,109.095 196.031,109.264 "/>
<polygon fill="rgb(255, 158, 108)" points="193.051,114.83 188.853,115.126 189.526,116.346 192.174,116.483 "/>
<polygon fill="rgb(255, 158, 108)" points="46.669,75.557 47.8,75.58 83.482,16.19 82.647,13.5 "/>
<polygon fill="rgb(255, 158, 108)" points="55.017,75.675 56.187,75.783 82.942,31.252 82.47,28.214 "/>
<polygon fill="rgb(255, 158, 108)" points="63.691,75.913 64.993,75.954 82.794,46.325 82.364,43.487 "/>
<polygon fill="rgb(255, 158, 108)" points="82.546,61.23 82.237,58.455 72.242,76.018 73.635,76.063 "/>
<polygon fill="rgb(255, 158, 108)" points="18.306,31.978 13.299,40.535 15.473,40.332 19.241,33.266 "/>
<polygon fill="rgb(255, 158, 108)" points="22.539,39.902 20.431,42.571 22.532,42.576 23.109,40.859 "/>
<polygon fill="rgb(255, 158, 108)" points="46.163,70.059 10.258,10.803 9.126,10.83 45.335,72.752 "/>
<polygon fill="rgb(255, 158, 108)" points="50.443,63 22.826,17.295 21.657,17.409 49.286,64.766 "/>
<polygon fill="rgb(255, 158, 108)" points="35.174,25.854 53.584,56.783 54.902,55.109 36.476,25.809 "/>
<polygon fill="rgb(255, 158, 108)" points="58.913,48.284 48.914,32.088 47.522,32.139 57.843,50.146 "/>
<polygon fill="rgb(255, 158, 108)" points="206.723,65.779 169.85,2.502 169.028,5.265 205.58,65.811 "/>
<polygon fill="rgb(255, 158, 108)" points="194.035,59.099 165.896,10.705 164.736,12.52 192.854,59.219 "/>
<polygon fill="rgb(255, 158, 108)" points="160.272,20.628 179.024,50.563 180.339,50.511 161.594,18.908 "/>
<polygon fill="rgb(255, 158, 108)" points="156.251,27.644 166.43,44.191 167.835,44.132 157.323,25.73 "/>
<polygon fill="rgb(255, 158, 108)" points="62.924,41.546 61.888,40.076 60.497,40.127 61.855,43.408 "/>
<polygon fill="rgb(255, 158, 108)" points="166.434,0.61 165.303,0.607 130.669,60.616 131.553,63.291 "/>
<polygon fill="rgb(255, 158, 108)" points="158.085,0.639 156.914,0.552 130.946,45.546 131.471,48.575 "/>
<polygon fill="rgb(255, 158, 108)" points="149.41,0.554 148.106,0.536 130.83,30.472 131.309,33.303 "/>
<polygon fill="rgb(255, 158, 108)" points="140.855,0.6 139.463,0.579 130.814,15.565 131.173,18.334 "/>
<polygon fill="rgb(255, 158, 108)" points="151.176,35.557 154.535,34.271 153.291,33.021 "/>
<polygon fill="rgb(255, 158, 108)" points="0.042,53.37 0.038,55.538 1.396,55.569 1.324,55.523 31.862,55.31 30.914,53.345 "/>
<polygon fill="rgb(255, 158, 108)" points="0.022,61.399 0.018,63.239 37.193,62.93 36.387,61.104 "/>
<polygon fill="rgb(255, 158, 108)" points="0.005,68.751 0,70.717 41.378,70.376 40.428,68.412 "/>
<polygon fill="rgb(255, 158, 108)" points="236.035,74.404 259.429,114.269 259.522,114.431 259.528,111.749 259.435,111.578 238.732,74.41 "/>
<polygon fill="rgb(255, 158, 108)" points="259.503,83.103 255.629,74.451 253.214,74.445 259.496,85.848 259.591,86.02 259.599,83.314 "/>
<polygon fill="rgb(255, 158, 108)" points="259.487,129.193 259.494,126.214 259.399,126.052 229.362,74.387 227.09,74.382 259.392,129.033 "/>
<polygon fill="rgb(255, 158, 108)" points="250.322,2.3 213.225,71.05 213.795,72.017 253.742,2.25 "/>
<polygon fill="rgb(255, 158, 108)" points="259.907,5.262 259.91,4.317 258.071,3.7 219.954,71.875 221.735,71.879 "/>
<polygon fill="rgb(255, 158, 108)" points="232.96,64.099 234.669,64.038 259.872,19.793 259.881,16.382 "/>
<polygon fill="rgb(255, 158, 108)" points="259.842,32.36 245.596,56.658 247.736,56.686 259.833,35.945 "/>
<polygon fill="rgb(255, 158, 108)" points="220.842,74.367 218.145,74.361 259.359,143.25 259.365,140.369 "/>
<polygon fill="rgb(255, 158, 108)" points="246.683,74.429 244.127,74.423 259.466,98.322 259.471,96.322 "/>
<polygon fill="rgb(255, 158, 108)" points="241.375,63.996 259.767,63.865 259.771,62.024 242.19,62.172 "/>
<polygon fill="rgb(255, 158, 108)" points="230.089,69.632 229.129,71.593 259.748,71.387 259.753,69.378 "/>
<polygon fill="rgb(255, 158, 108)" points="471.622,87.299 436.753,149.958 436.742,149.979 437.873,149.982 437.887,149.961 472.506,89.973 
	"/>
<polygon fill="rgb(255, 158, 108)" points="398.573,86.338 433.988,147.921 435.23,145.813 399.63,86.34 "/>
<polygon fill="rgb(255, 158, 108)" points="412.915,93.557 411.574,93.601 438.414,140.324 439.657,138.216 "/>
<polygon fill="rgb(255, 158, 108)" points="424.293,100.499 442.545,132.213 443.788,130.104 426.003,100.516 "/>
<polygon fill="rgb(255, 158, 108)" points="448.174,123.177 439.315,108.43 437.237,108.409 446.932,125.285 "/>
<polygon fill="rgb(255, 158, 108)" points="337.223,141.053 301.406,79.702 300.177,81.819 336.167,141.057 "/>
<polygon fill="rgb(255, 158, 108)" points="322.834,133.928 324.175,133.874 297.028,87.329 295.801,89.446 "/>
<polygon fill="rgb(255, 158, 108)" points="291.722,97.583 309.701,127.055 311.411,127.062 292.951,95.466 "/>
<polygon fill="rgb(255, 158, 108)" points="287.382,104.541 296.337,119.229 298.416,119.235 288.611,102.423 "/>
<polygon fill="rgb(255, 158, 108)" points="382.932,78.775 343.103,145.253 344.336,147.367 383.987,78.778 "/>
<polygon fill="rgb(255, 158, 108)" points="367.689,92.855 367.582,90.597 338.714,137.634 339.946,139.748 "/>
<polygon fill="rgb(255, 158, 108)" points="356.958,93.733 334.622,129.503 335.854,131.617 358.668,93.724 "/>
<polygon fill="rgb(255, 158, 108)" points="345.42,101.046 343.906,101.06 330.271,122.554 331.501,124.668 "/>
<polygon fill="rgb(255, 158, 108)" points="299.087,76.995 298.031,76.991 262.631,136.144 263.863,138.257 "/>
<polygon fill="rgb(255, 158, 108)" points="288.898,76.97 263.063,121.485 264.296,123.599 290.426,77.228 "/>
<polygon fill="rgb(255, 158, 108)" points="280.491,77.205 262.592,106.2 263.822,108.314 282.202,77.195 "/>
<polygon fill="rgb(255, 158, 108)" points="273.135,77.183 271.621,77.196 262.371,91.934 263.604,94.049 "/>
<polygon fill="rgb(255, 158, 108)" points="260.616,79.913 260.614,80.647 261.595,82.328 264.685,76.896 263.172,76.908 "/>
<polygon fill="rgb(255, 158, 108)" points="333.431,108.472 331.353,108.483 325.995,115.428 327.228,117.542 "/>
<polygon fill="rgb(255, 158, 108)" points="389.924,79.354 350.273,147.945 351.328,147.947 391.156,81.469 "/>
<polygon fill="rgb(255, 158, 108)" points="366.57,133.867 366.677,136.125 395.547,89.088 394.313,86.974 "/>
<polygon fill="rgb(255, 158, 108)" points="375.592,132.997 377.302,132.988 399.638,97.219 398.405,95.104 "/>
<polygon fill="rgb(255, 158, 108)" points="388.839,125.675 390.354,125.663 403.99,104.168 402.757,102.054 "/>
<polygon fill="rgb(255, 158, 108)" points="400.829,118.25 402.907,118.239 408.266,111.294 407.031,109.18 "/>
<polygon fill="rgb(255, 158, 108)" points="456.084,41.966 461.965,33.064 459.361,33.123 455.475,40.851 "/>
<polygon fill="rgb(255, 158, 108)" points="474.721,24.943 472.173,25.192 459.998,47.927 460.668,48.938 "/>
<polygon fill="rgb(255, 158, 108)" points="485.438,17.328 464.438,55.086 465.192,56.35 487.73,17.078 "/>
<polygon fill="rgb(255, 158, 108)" points="500.229,10.23 497.427,10.479 468.457,63.002 469.378,64.518 "/>
<polygon fill="rgb(255, 158, 108)" points="322.84,110.417 324.511,107.547 322.432,107.557 321.608,108.302 "/>
<polygon fill="rgb(255, 158, 108)" points="471.704,102.015 445.091,149.951 445.468,149.979 445.836,150.006 446.263,150.037 446.278,150.007 
	446.295,149.981 472.229,105.043 "/>
<polygon fill="rgb(255, 158, 108)" points="471.866,117.287 453.786,149.998 453.771,150.026 453.766,150.036 455.069,150.053 455.083,150.028 
	455.099,150.001 472.347,120.117 "/>
<polygon fill="rgb(255, 158, 108)" points="462.319,149.99 463.713,150.011 472.362,135.024 472.004,132.255 "/>
<polygon fill="rgb(255, 158, 108)" points="474.013,82.871 513.893,149.274 515.044,149.14 475.439,80.319 "/>
<polygon fill="rgb(255, 158, 108)" points="474.262,97.638 504.948,149.537 506.231,149.469 475.119,95.369 "/>
<polygon fill="rgb(255, 158, 108)" points="475.076,112.833 496.92,150.103 498.291,150.028 475.509,110.562 "/>
<polygon fill="rgb(255, 158, 108)" points="474.896,129.019 488.118,150.082 489.4,150.014 475.753,126.749 "/>
<polygon fill="rgb(255, 158, 108)" points="475.146,143.359 479.457,150.061 480.827,149.986 476.002,141.517 "/>
<polygon fill="rgb(255, 158, 108)" points="470.444,149.596 471.241,150.041 472.889,150.045 471.302,147.326 "/>
<polygon fill="rgb(255, 158, 108)" points="388.947,66.611 350.328,0.632 347.633,0.626 388.94,69.487 "/>
<polygon fill="rgb(255, 158, 108)" points="384.525,74.594 344.922,5.771 343.496,8.325 383.376,74.729 "/>
<polygon fill="rgb(255, 158, 108)" points="375.712,74.922 344.602,20.822 343.743,23.091 374.429,74.99 "/>
<polygon fill="rgb(255, 158, 108)" points="367.773,75.481 344.99,36.015 344.559,38.285 366.402,75.556 "/>
<polygon fill="rgb(255, 158, 108)" points="382.701,0.71 389.078,12.099 389.085,9.393 385.115,0.716 "/>
<polygon fill="rgb(255, 158, 108)" points="373.614,0.688 389.05,24.548 389.053,22.563 376.171,0.694 "/>
<polygon fill="rgb(255, 158, 108)" points="393.305,0.736 390.891,0.73 393.96,5.211 393.967,2.505 "/>
<polygon fill="rgb(255, 158, 108)" points="365.521,0.669 389.01,40.511 389.017,37.828 368.22,0.675 "/>
<polygon fill="rgb(255, 158, 108)" points="356.576,0.647 388.974,55.273 388.981,52.295 358.849,0.652 "/>
<polygon fill="rgb(255, 158, 108)" points="358.883,75.467 345.236,52.202 344.378,54.472 357.6,75.535 "/>
<polygon fill="rgb(255, 158, 108)" points="348.938,75.514 350.31,75.439 345.483,66.97 344.627,68.813 "/>
<polygon fill="rgb(255, 158, 108)" points="341.203,75.762 342.486,75.694 340.784,72.779 339.928,75.05 "/>
<polygon fill="rgb(255, 158, 108)" points="473.824,78.345 394.423,78.966 394.98,79.951 471.94,80.438 "/>
<polygon fill="rgb(255, 158, 108)" points="469.439,85.733 407.389,86.48 407.894,87.541 467.979,87.693 "/>
<polygon fill="rgb(255, 158, 108)" points="464.955,93.467 420.205,93.978 420.836,95.117 463.593,95.29 "/>
<polygon fill="rgb(255, 158, 108)" points="460.472,101.063 433.296,101.527 433.969,102.746 459.595,102.716 "/>
<polygon fill="rgb(255, 158, 108)" points="265.7,48.978 287.438,48.662 286.677,46.562 267.151,47.293 "/>
<polygon fill="rgb(255, 158, 108)" points="376.835,78.912 303.774,79.011 305.681,81.085 376.287,79.902 "/>
<polygon fill="rgb(255, 158, 108)" points="363.944,86.557 308.234,86.354 309.715,88.299 363.45,87.622 "/>
<polygon fill="rgb(255, 158, 108)" points="351.203,94.182 312.797,94.043 314.177,95.852 350.584,95.328 "/>
<polygon fill="rgb(255, 158, 108)" points="338.19,101.863 317.354,101.594 318.25,103.237 337.53,103.089 "/>
<polygon fill="rgb(255, 158, 108)" points="361.349,146.149 360.562,147.437 430.869,147.738 428.976,145.65 "/>
<polygon fill="rgb(255, 158, 108)" points="372.433,139.871 426.455,140.365 424.988,138.411 373.18,138.563 "/>
<polygon fill="rgb(255, 158, 108)" points="386.179,131.185 385.552,132.327 421.943,132.648 420.573,130.831 "/>
<polygon fill="rgb(255, 158, 108)" points="398.346,124.728 417.43,125.069 416.546,123.42 399.013,123.505 "/>
<polygon fill="rgb(255, 158, 108)" points="409.635,115.963 408.854,117.351 413.044,117.492 412.159,115.842 "/>
<polygon fill="rgb(255, 158, 108)" points="262.864,146.233 260.992,148.337 340.863,147.396 340.063,146.116 "/>
<polygon fill="rgb(255, 158, 108)" points="265.335,140.924 328.921,139.943 328.162,138.643 266.785,138.956 "/>
<polygon fill="rgb(255, 158, 108)" points="269.775,133.164 315.197,132.522 314.56,131.385 271.129,131.334 "/>
<polygon fill="rgb(255, 158, 108)" points="274.216,125.543 302.319,125.043 301.64,123.828 275.085,123.885 "/>
<polygon fill="rgb(255, 158, 108)" points="263.531,6.022 342.184,5.909 344.056,3.805 262.732,4.741 "/>
<polygon fill="rgb(255, 158, 108)" points="339.713,11.218 276.127,12.198 276.887,13.499 338.264,13.186 "/>
<polygon fill="rgb(255, 158, 108)" points="335.273,18.978 289.851,19.62 290.488,20.757 333.92,20.808 "/>
<polygon fill="rgb(255, 158, 108)" points="330.833,26.599 302.729,27.099 303.409,28.315 329.965,28.257 "/>
<polygon fill="rgb(255, 158, 108)" points="326.993,34.232 315.93,34.558 316.609,35.774 326.125,35.889 "/>
<polygon fill="rgb(255, 158, 108)" points="469.183,70.758 391.985,70.875 390.112,72.979 469.982,72.04 "/>
<polygon fill="rgb(255, 158, 108)" points="394.455,65.566 458.041,64.586 457.282,63.285 395.904,63.598 "/>
<polygon fill="rgb(255, 158, 108)" points="398.895,57.807 444.317,57.165 443.68,56.027 400.249,55.977 "/>
<polygon fill="rgb(255, 158, 108)" points="403.336,50.186 431.439,49.686 430.759,48.47 404.203,48.527 "/>
<polygon fill="rgb(255, 158, 108)" points="407.175,42.553 418.239,42.226 417.559,41.011 408.043,40.895 "/>
<polygon fill="rgb(255, 158, 108)" points="435.458,5.822 503.396,4.853 504.186,3.566 433.569,3.731 "/>
<polygon fill="rgb(255, 158, 108)" points="492.297,11.104 437.966,11.113 439.43,13.071 491.547,12.411 "/>
<polygon fill="rgb(255, 158, 108)" points="478.627,18.625 442.462,18.841 443.828,20.662 477.998,19.766 "/>
<polygon fill="rgb(255, 158, 108)" points="465.802,26.195 446.956,26.43 447.837,28.082 465.131,27.417 "/>
<polygon fill="rgb(255, 158, 108)" points="453.812,33.752 450.947,33.865 451.73,35.687 "/>
<polygon fill="rgb(255, 158, 108)" points="278.787,117.678 289.434,117.572 288.659,116.183 279.68,116.033 "/>
<polygon fill="rgb(255, 158, 108)" points="456.669,108.237 445.358,108.501 446.029,109.72 455.792,109.89 "/>
<polygon fill="rgb(255, 158, 108)" points="452.812,115.456 448.613,115.752 449.286,116.972 451.934,117.109 "/>
<polygon fill="rgb(255, 158, 108)" points="306.43,76.183 307.561,76.206 343.243,16.816 342.408,14.125 "/>
<polygon fill="rgb(255, 158, 108)" points="314.777,76.301 315.946,76.409 342.702,31.878 342.229,28.84 "/>
<polygon fill="rgb(255, 158, 108)" points="323.45,76.538 324.754,76.579 342.555,46.95 342.123,44.113 "/>
<polygon fill="rgb(255, 158, 108)" points="342.307,61.856 341.998,59.081 332.003,76.644 333.396,76.689 "/>
<polygon fill="rgb(255, 158, 108)" points="278.066,32.604 273.059,41.161 275.233,40.958 279.002,33.892 "/>
<polygon fill="rgb(255, 158, 108)" points="282.299,40.528 280.192,43.197 282.293,43.202 282.87,41.485 "/>
<polygon fill="rgb(255, 158, 108)" points="305.922,70.685 270.02,11.429 268.887,11.456 305.096,73.378 "/>
<polygon fill="rgb(255, 158, 108)" points="310.203,63.626 282.585,17.921 281.417,18.034 309.048,65.392 "/>
<polygon fill="rgb(255, 158, 108)" points="294.935,26.48 313.345,57.409 314.662,55.736 296.236,26.435 "/>
<polygon fill="rgb(255, 158, 108)" points="318.673,48.909 308.674,32.713 307.283,32.765 317.604,50.771 "/>
<polygon fill="rgb(255, 158, 108)" points="466.483,66.404 429.61,3.128 428.789,5.892 465.341,66.438 "/>
<polygon fill="rgb(255, 158, 108)" points="453.796,59.725 425.657,11.331 424.497,13.147 452.614,59.846 "/>
<polygon fill="rgb(255, 158, 108)" points="420.032,21.254 438.784,51.189 440.1,51.137 421.354,19.533 "/>
<polygon fill="rgb(255, 158, 108)" points="416.012,28.269 426.19,44.817 427.596,44.758 417.084,26.356 "/>
<polygon fill="rgb(255, 158, 108)" points="322.684,42.172 321.649,40.702 320.258,40.753 321.615,44.034 "/>
<polygon fill="rgb(255, 158, 108)" points="426.193,1.237 425.062,1.234 390.43,61.241 391.313,63.917 "/>
<polygon fill="rgb(255, 158, 108)" points="417.846,1.265 416.675,1.178 390.707,46.172 391.232,49.201 "/>
<polygon fill="rgb(255, 158, 108)" points="409.17,1.18 407.867,1.163 390.59,31.099 391.07,33.928 "/>
<polygon fill="rgb(255, 158, 108)" points="400.616,1.225 399.225,1.204 390.574,16.191 390.934,18.96 "/>
<polygon fill="rgb(255, 158, 108)" points="410.937,36.183 414.295,34.896 413.051,33.647 "/>
<polygon fill="rgb(255, 158, 108)" points="260.119,31.921 259.854,32.36 259.847,35.945 270.429,18.955 270.08,16.825 "/>
<polygon fill="rgb(255, 158, 108)" points="262.104,12.76 259.894,16.382 259.885,19.793 264.331,12.827 263.609,10.323 "/>
<polygon fill="rgb(255, 158, 108)" points="290.673,53.971 259.803,53.996 259.801,54.294 259.779,53.984 256.106,53.924 255.224,56.217 
	259.486,56.205 259.774,56.205 259.778,55.585 259.802,54.296 259.797,56.163 261.156,56.195 261.084,56.149 291.624,55.936 "/>
<polygon fill="rgb(255, 158, 108)" points="259.823,45.357 259.816,48.175 274.673,26.466 273.993,25.186 "/>
<polygon fill="rgb(255, 158, 108)" points="296.147,61.729 259.783,62.025 259.778,63.865 296.955,63.557 "/>
<polygon fill="rgb(255, 158, 108)" points="300.188,69.037 259.765,69.377 259.76,71.344 301.139,71.003 "/>
<polygon fill="rgb(255, 158, 108)" points="519.188,114.895 519.283,115.058 519.289,112.375 519.195,112.205 498.493,75.037 495.795,75.029 
	"/>
<polygon fill="rgb(255, 158, 108)" points="519.257,86.474 519.352,86.645 519.357,83.939 519.264,83.727 515.39,75.076 512.975,75.071 "/>
<polygon fill="rgb(255, 158, 108)" points="519.152,129.66 519.247,129.819 519.256,126.842 519.16,126.678 489.122,75.013 486.85,75.008 "/>
<polygon fill="rgb(255, 158, 108)" points="510.082,2.926 472.984,71.676 473.557,72.643 513.503,2.875 "/>
<polygon fill="rgb(255, 158, 108)" points="479.714,72.501 481.496,72.506 519.668,5.888 519.671,4.943 517.831,4.326 "/>
<polygon fill="rgb(255, 158, 108)" points="492.721,64.725 494.43,64.665 519.633,20.418 519.642,17.009 "/>
<polygon fill="rgb(255, 158, 108)" points="505.355,57.285 507.497,57.312 519.595,36.571 519.603,32.986 "/>
<polygon fill="rgb(255, 158, 108)" points="519.119,143.875 519.126,140.995 480.604,74.993 477.904,74.986 "/>
<polygon fill="rgb(255, 158, 108)" points="519.228,98.947 519.231,96.948 506.443,75.055 503.888,75.048 "/>
<polygon fill="rgb(255, 158, 108)" points="514.984,56.843 519.247,56.83 519.534,56.83 519.539,56.21 519.562,54.921 519.539,54.609 
	515.866,54.55 "/>
<polygon fill="rgb(255, 158, 108)" points="501.951,62.798 501.136,64.621 519.526,64.491 519.531,62.65 "/>
<polygon fill="rgb(255, 158, 108)" points="489.85,70.258 488.891,72.219 519.508,72.013 519.515,70.003 "/>
</svg>
